<svg width="20" height="23" viewBox="0 0 20 23" fill="none" xmlns="http://www.w3.org/2000/svg">
<path d="M7.75 11.125L12.25 15.625M12.25 11.125L7.75 15.625M16.75 4.375L15.849 17.8895C15.7701 19.0731 15.7306 19.665 15.475 20.1137C15.2499 20.5088 14.9104 20.8264 14.5012 21.0248C14.0365 21.25 13.4433 21.25 12.257 21.25H7.74299C6.55668 21.25 5.96352 21.25 5.49875 21.0248C5.08957 20.8264 4.75006 20.5088 4.52498 20.1137C4.26933 19.665 4.22987 19.0731 4.15097 17.8895L3.25 4.375M1 4.375H19M14.5 4.375L14.1956 3.46158C13.9005 2.57641 13.7529 2.13382 13.4793 1.8066C13.2376 1.51765 12.9274 1.29399 12.5768 1.15613C12.1798 1 11.7134 1 10.7803 1H9.2197C8.28663 1 7.8202 1 7.4232 1.15613C7.07266 1.29399 6.76234 1.51765 6.5207 1.8066C6.24706 2.13382 6.09954 2.57641 5.80447 3.46158L5.5 4.375" stroke="#495057" stroke-width="2" stroke-linecap="round" stroke-linejoin="round"/>
</svg>
