<svg width="759" height="778" viewBox="0 0 759 778" fill="none" xmlns="http://www.w3.org/2000/svg">
<path d="M379.5 0L379.573 388.267L524.729 29.5841L379.711 388.327L647.846 113.833L379.815 388.434L730.112 239.919L379.873 388.575L759 388.65L379.873 388.725L730.112 537.38L379.815 388.866L647.846 663.466L379.711 388.973L524.729 747.715L379.573 389.032L379.5 777.3L379.427 389.032L234.271 747.715L379.289 388.973L111.153 663.466L379.185 388.866L28.8876 537.38L379.127 388.725L0 388.65L379.127 388.575L28.8876 239.919L379.185 388.434L111.153 113.833L379.289 388.327L234.271 29.5841L379.427 388.267L379.5 0Z" fill="#312787" stroke="#5A48F9" stroke-width="4"/>
</svg>
