<svg width="27" height="24" viewBox="0 0 27 24" fill="none" xmlns="http://www.w3.org/2000/svg">
<path d="M13.5 15.1324V1.194M13.5 1.194L17.2499 4.94666M13.5 1.194L9.75 4.94666" stroke="#495057" stroke-width="2" stroke-linecap="round" stroke-linejoin="round"/>
<path d="M8.49992 22.638H18.4998C22.0353 22.638 23.803 22.638 24.9014 21.6959C25.9997 20.7538 25.9997 19.2374 25.9997 16.2049V15.1327C25.9997 12.1001 25.9997 10.5838 24.9014 9.64167C23.9409 8.81781 22.4685 8.7144 19.7498 8.70142M7.24994 8.70142C4.53118 8.7144 3.0588 8.81781 2.09834 9.64166C1 10.5838 1 12.1001 1 15.1327V16.2049C1 19.2374 1 20.7538 2.09834 21.6959C2.47309 22.0173 2.92576 22.2291 3.49997 22.3687" stroke="#495057" stroke-width="2" stroke-linecap="round"/>
</svg>
