<svg width="22" height="28" viewBox="0 0 22 28" fill="none" xmlns="http://www.w3.org/2000/svg">
<path d="M10.9999 22.4283V13.857M10.9999 13.857L6.7142 16.7141M10.9999 13.857L15.2855 16.7141M12.4284 1.00124C12.292 1 12.1388 1 11.9637 1H5.57165C3.97151 1 3.17085 1 2.55969 1.31141C2.02209 1.58532 1.58532 2.02209 1.31141 2.55969C1 3.17086 1 3.97151 1 5.57165V22.1428C1 23.743 1 24.5427 1.31141 25.1538C1.58532 25.6914 2.02209 26.1289 2.55969 26.4028C3.17027 26.7139 3.96996 26.7139 5.56699 26.7139H16.4328C18.0298 26.7139 18.8283 26.7139 19.4389 26.4028C19.9764 26.1289 20.4147 25.6914 20.6886 25.1538C20.9997 24.5432 20.9997 23.7447 20.9997 22.1477V10.0366C20.9997 9.86124 20.9997 9.70789 20.9984 9.57131M12.4284 1.00124C12.8364 1.00496 13.0945 1.01979 13.341 1.07894C13.6325 1.14893 13.9111 1.26465 14.1667 1.42131C14.4549 1.59795 14.7024 1.84545 15.1962 2.33927L19.6612 6.80417C20.1553 7.29832 20.401 7.54471 20.5777 7.83303C20.7343 8.08867 20.8501 8.36741 20.9201 8.65893C20.9793 8.90526 20.9944 9.16347 20.9984 9.57131M12.4284 1.00124V4.99994C12.4284 6.60006 12.4284 7.39958 12.7398 8.01074C13.0137 8.54835 13.4505 8.98629 13.9881 9.26021C14.5987 9.57131 15.3984 9.57131 16.9953 9.57131H20.9984M20.9984 9.57131H21" stroke="#E9ECEF" stroke-width="2" stroke-linecap="round" stroke-linejoin="round"/>
</svg>
