<svg width="47" height="30" viewBox="0 0 47 30" fill="none" xmlns="http://www.w3.org/2000/svg">
<path d="M15.6 2.64L9.72 12.36C10.8933 12.44 11.9867 12.76 13 13.32C14.04 13.8533 14.8667 14.6933 15.48 15.84C16.12 16.96 16.44 18.4267 16.44 20.24C16.44 22.1067 16.0133 23.72 15.16 25.08C14.3067 26.44 13.1733 27.4933 11.76 28.24C10.3467 28.96 8.78667 29.32 7.08 29.32C5.8 29.32 4.50667 29.0533 3.2 28.52C1.92 27.9867 0.866667 27.2933 0.0400001 26.44L2.16 23C2.64 23.5867 3.32 24.12 4.2 24.6C5.08 25.0533 6.01333 25.28 7 25.28C8.38667 25.28 9.58667 24.8133 10.6 23.88C11.6133 22.92 12.12 21.6267 12.12 20C12.12 18.5333 11.6933 17.3733 10.84 16.52C9.98667 15.6667 8.81333 15.24 7.32 15.24C6.54667 15.24 5.90667 15.2933 5.4 15.4C4.89333 15.5067 4.42667 15.64 4 15.8L3.84 15.64L9.48 6.68H1.68V2.64H15.6ZM23.0966 29V-9.53674e-07H31.1366C34.0166 -9.53674e-07 36.4566 0.439999 38.4566 1.32C40.4566 2.17333 42.0832 3.33333 43.3366 4.8C44.5899 6.24 45.4966 7.84 46.0566 9.6C46.6432 11.36 46.9366 13.12 46.9366 14.88C46.9366 17.04 46.5499 19 45.7766 20.76C45.0299 22.4933 43.9766 23.9733 42.6166 25.2C41.2832 26.4267 39.7499 27.3733 38.0166 28.04C36.2832 28.68 34.4566 29 32.5366 29H23.0966ZM27.2566 24.96H31.7366C33.8432 24.96 35.7099 24.56 37.3366 23.76C38.9632 22.96 40.2432 21.7867 41.1766 20.24C42.1366 18.6933 42.6166 16.8133 42.6166 14.6C42.6166 12.7867 42.3099 11.2267 41.6966 9.92C41.1099 8.58667 40.3232 7.49333 39.3366 6.64C38.3499 5.76 37.2432 5.10667 36.0166 4.68C34.7899 4.25333 33.5366 4.04 32.2566 4.04H27.2566V24.96Z" fill="#5A48F9"/>
</svg>
